# xmcd CD database file
#
# Track frame offsets:
#	150
#	13789
#	34891
#	50058
#	68685
#	86557
#	104857
#	122014
#	141136
#	163694
#	177776
#	198556
#	216493
#	234635
#	248524
#	262886
#	279053
#	300567
#
# Disc length: 4208 seconds
#
# Revision: 0
# Processed by: cddbd v1.5.2PL0 Copyright (c) Steve Scherf et al.
# Submitted via: CDex 1.51
#
DISCID=01106e12
DTITLE=The 18th Bluesfest - 2007 [CD2)
DYEAR=2007
DGENRE=Blues
TTITLE0=Bo Diddley - Im A Man
TTITLE1=Tony Joe White - Run for Cover
TTITLE2=Kasey Chambers - Nothing At All
TTITLE3=Robben Ford - Talk to your Daughter
TTITLE4=Blue King Brown - Water
TTITLE5=Jackson Jackson - Cats, Rats and Pigeons
TTITLE6=Ziggy Marley - Love is my Religion
TTITLE7=The Roots - Dont Feel Right
TTITLE8=Fishbone - Fight the Youth
TTITLE9=Ben Kweller - Run
TTITLE10=Bela Fleck and the Flecktones - The Sinister Minister
TTITLE11=The Kill Devil Hills - Drinkin' Too Much
TTITLE12=Gomez - Notice
TTITLE13=Chris Smither - Origin of Species
TTITLE14=The Gin Club - Drug Flowers
TTITLE15=Hat Fitz - Hold my Hand
TTITLE16=Terrance Simien and The Zydeco Experience - Dance Everyday
TTITLE17=Taj Mahal - Aint Nobody's Business But my Own
EXTD=YEAR: 2007
EXTT0=
EXTT1=
EXTT2=
EXTT3=
EXTT4=
EXTT5=
EXTT6=
EXTT7=
EXTT8=
EXTT9=
EXTT10=
EXTT11=
EXTT12=
EXTT13=
EXTT14=
EXTT15=
EXTT16=
EXTT17=
PLAYORDER=
